# xmcd
#
# Track frame offsets: 
#        150
#        15858
#        80940
#        92050
#        112905
#        144328
#
# Disc length: 2475 seconds
#
# Revision: 1
# Processed by: cddbd v1.5.2PL0 Copyright (c) Steve Scherf et al.
# Submitted via: ExactAudioCopy v0.95b3
#
DISCID=3e09a906
DTITLE=Art Blakey and The New Jazz Messengers - Buttercorn Lady (Remaste
DTITLE=r)
DYEAR=1966
DGENRE=Jazz
TTITLE0=Buttercorn Lady
TTITLE1=Recuerdo
TTITLE2=The Theme
TTITLE3=Between Races
TTITLE4=My Romance From "Jumbo"
TTITLE5=Secret Love
EXTD=YEAR: 1966
EXTT0=
EXTT1=
EXTT2=
EXTT3=
EXTT4=
EXTT5=
PLAYORDER=
